# xmcd CD database file
#
# Track frame offsets:
#	187
#	23395
#	40875
#	59290
#	91337
#	112170
#	134367
#	157420
#
# Disc length: 2296 seconds
#
# Revision: 0
# Processed by: cddbd v1.5.2PL0 Copyright (c) Steve Scherf et al.
# Submitted via: CDex 1.70beta3
#
DISCID=6808f608
DTITLE=Sam Lazar - Playback
DYEAR=1961
DGENRE=Jazz
TTITLE0=Deep
TTITLE1=Long Gone
TTITLE2=Bag's Groove
TTITLE3=Fuzz Buzz
TTITLE4=Just Make Love To Me
TTITLE5=S and S
TTITLE6=Please Send Me Someone To Love
TTITLE7=Scootin'
EXTD=YEAR: 1961
EXTT0=
EXTT1=
EXTT2=
EXTT3=
EXTT4=
EXTT5=
EXTT6=
EXTT7=
PLAYORDER=
